<?xml version="1.0" standalone="no"?>
<!DOCTYPE svg PUBLIC "-//W3C//DTD SVG 20010904//EN"
 "http://www.w3.org/TR/2001/REC-SVG-20010904/DTD/svg10.dtd">
<svg version="1.0" xmlns="http://www.w3.org/2000/svg"
 width="150.000000pt" height="150.000000pt" viewBox="0 0 150.000000 150.000000"
 preserveAspectRatio="xMidYMid meet">
<metadata>
Created by potrace 1.16, written by Peter Selinger 2001-2019
</metadata>
<g transform="translate(0.000000,150.000000) scale(0.100000,-0.100000)"
fill="#000000" stroke="none">
<path d="M150 750 l0 -390 95 0 95 0 0 310 0 309 203 -2 c220 -3 235 -6 267
-60 18 -30 20 -52 20 -295 l0 -263 93 3 92 3 0 305 c0 293 -1 307 -22 345 -27
51 -57 79 -113 104 -42 19 -64 21 -387 21 l-343 0 0 -390z"/>
<path d="M1160 750 l0 -390 95 0 95 0 0 390 0 390 -95 0 -95 0 0 -390z"/>
<path d="M490 600 l0 -241 93 3 92 3 0 235 0 235 -92 3 -93 3 0 -241z"/>
</g>
</svg>
