<?xml version="1.0" encoding="UTF-8"?>
<!DOCTYPE svg PUBLIC "-//W3C//DTD SVG 1.1//EN" "http://www.w3.org/Graphics/SVG/1.1/DTD/svg11.dtd">
<svg xmlns="http://www.w3.org/2000/svg" version="1.1" width="696px" height="650px" style="shape-rendering:geometricPrecision; text-rendering:geometricPrecision; image-rendering:optimizeQuality; fill-rule:evenodd; clip-rule:evenodd" xmlns:xlink="http://www.w3.org/1999/xlink">
<g><path style="opacity:0.38" fill="#b4b4b4" d="M 542.5,141.5 C 570.169,141.333 597.835,141.5 625.5,142C 626.056,142.383 626.389,142.883 626.5,143.5C 625.833,143.5 625.167,143.5 624.5,143.5C 596.931,142.172 569.264,142.172 541.5,143.5C 541.328,142.508 541.662,141.842 542.5,141.5 Z"/></g>
<g><path style="opacity:0.639" fill="#454545" d="M 624.5,143.5 C 597.498,143.333 570.498,143.5 543.5,144C 543,144.5 542.5,145 542,145.5C 541.5,265.166 541.333,384.833 541.5,504.5C 541.167,504.5 540.833,504.5 540.5,504.5C 540.169,384.096 540.502,263.763 541.5,143.5C 569.264,142.172 596.931,142.172 624.5,143.5 Z"/></g>
<g><path style="opacity:0.882" fill="#212121" d="M 375.5,142.5 C 376.791,142.263 377.791,142.596 378.5,143.5C 380.833,144.167 383.167,144.833 385.5,145.5C 280.174,144.531 174.841,144.198 69.5,144.5C 69.5,144.167 69.5,143.833 69.5,143.5C 171.332,142.501 273.332,142.167 375.5,142.5 Z"/></g>
<g><path style="opacity:0.482" fill="#777777" d="M 378.5,143.5 C 379.833,143.5 381.167,143.5 382.5,143.5C 385.152,143.41 387.485,144.076 389.5,145.5C 388.167,145.5 386.833,145.5 385.5,145.5C 383.167,144.833 380.833,144.167 378.5,143.5 Z"/></g>
<g><path style="opacity:0.997" fill="#000000" d="M 69.5,144.5 C 174.841,144.198 280.174,144.531 385.5,145.5C 386.833,145.5 388.167,145.5 389.5,145.5C 390.167,145.5 390.833,145.5 391.5,145.5C 397.028,147.746 402.695,149.746 408.5,151.5C 409.492,151.328 410.158,151.662 410.5,152.5C 411.514,153.674 412.847,154.34 414.5,154.5C 416.456,155.492 418.456,156.492 420.5,157.5C 420.973,158.906 421.973,159.573 423.5,159.5C 423.842,160.338 424.508,160.672 425.5,160.5C 425.973,161.906 426.973,162.573 428.5,162.5C 429.593,165.261 431.593,166.927 434.5,167.5C 438.167,171.833 442.167,175.833 446.5,179.5C 446.738,181.404 447.738,182.738 449.5,183.5C 449.427,185.027 450.094,186.027 451.5,186.5C 451.427,188.027 452.094,189.027 453.5,189.5C 454.401,190.29 455.068,191.29 455.5,192.5C 456.298,194.966 457.631,196.966 459.5,198.5C 459.157,200.483 459.824,201.817 461.5,202.5C 462.179,205.839 463.512,208.839 465.5,211.5C 465.5,211.833 465.5,212.167 465.5,212.5C 465.259,214.898 465.926,216.898 467.5,218.5C 468.913,221.219 469.58,224.219 469.5,227.5C 470.051,230.807 470.384,234.14 470.5,237.5C 470.5,326.833 470.5,416.167 470.5,505.5C 470.5,506.167 470.167,506.5 469.5,506.5C 441.995,506.831 414.662,506.498 387.5,505.5C 387.5,504.833 387.5,504.167 387.5,503.5C 387.17,427.459 387.503,351.459 388.5,275.5C 387.933,273.018 387.266,270.684 386.5,268.5C 385.168,261.172 382.835,254.172 379.5,247.5C 378.482,246.807 377.482,246.141 376.5,245.5C 376.167,244.5 375.5,243.833 374.5,243.5C 374.443,242.391 374.11,241.391 373.5,240.5C 373.5,239.5 373.5,238.5 373.5,237.5C 374.675,237.719 375.675,237.386 376.5,236.5C 374.731,234.443 372.731,232.61 370.5,231C 371.167,230.333 371.833,229.667 372.5,229C 371,227.5 369.5,226 368,224.5C 367.135,226.888 367.968,228.388 370.5,229C 370,229.167 369.5,229.333 369,229.5C 365.682,227.67 362.515,225.67 359.5,223.5C 358.672,224.415 357.672,225.081 356.5,225.5C 354.666,224.246 352.666,223.579 350.5,223.5C 348.299,222.434 345.965,221.767 343.5,221.5C 341.631,220.835 339.631,220.169 337.5,219.5C 277.335,218.169 217.335,218.169 157.5,219.5C 156.508,219.328 155.842,219.662 155.5,220.5C 153.668,314.828 152.835,409.495 153,504.5C 125.574,505.495 98.0741,505.828 70.5,505.5C 69.1704,445.376 68.5038,385.043 68.5,324.5C 68.5,264.332 68.8333,204.332 69.5,144.5 Z"/></g>
<g><path style="opacity:0.999" fill="#010101" d="M 624.5,143.5 C 625.167,143.5 625.833,143.5 626.5,143.5C 627.496,263.46 627.829,383.46 627.5,503.5C 626.5,504.167 625.5,504.833 624.5,505.5C 596.789,505.816 569.122,505.483 541.5,504.5C 541.333,384.833 541.5,265.166 542,145.5C 542.5,145 543,144.5 543.5,144C 570.498,143.5 597.498,143.333 624.5,143.5 Z"/></g>
<g><path style="opacity:0.083" fill="#f2f2f2" d="M 376.5,140.5 C 382.206,140.171 387.872,140.505 393.5,141.5C 393.291,142.086 392.957,142.586 392.5,143C 400.526,143.481 407.526,144.814 413.5,147C 415.481,147.605 415.815,148.605 414.5,150C 416.833,150.333 419.167,150.667 421.5,151C 423.164,154.136 425.831,155.303 429.5,154.5C 429.351,155.552 429.517,156.552 430,157.5C 430.667,158.833 431.333,158.833 432,157.5C 433.044,158.623 433.71,159.956 434,161.5C 435.281,161.381 436.448,161.881 437.5,163C 436.167,163.667 436.167,164.333 437.5,165C 438.448,165.483 439.448,165.649 440.5,165.5C 440.351,166.552 440.517,167.552 441,168.5C 442,168.833 443,169.167 444,169.5C 444.483,170.448 444.649,171.448 444.5,172.5C 449.463,175.299 453.297,179.299 456,184.5C 456.741,183.359 457.575,183.359 458.5,184.5C 459.474,186.743 459.808,189.076 459.5,191.5C 460.5,191.5 461.5,191.5 462.5,191.5C 462.5,193.833 462.5,196.167 462.5,198.5C 463.833,198.5 465.167,198.5 466.5,198.5C 466.5,200.833 466.5,203.167 466.5,205.5C 467.822,205.33 468.989,205.663 470,206.5C 470.499,211.155 470.666,215.821 470.5,220.5C 471.5,220.5 472.5,220.5 473.5,220.5C 473.5,226.167 473.5,231.833 473.5,237.5C 472.833,237.5 472.167,237.5 471.5,237.5C 471.664,234.813 471.497,232.146 471,229.5C 470.722,228.584 470.222,227.918 469.5,227.5C 469.58,224.219 468.913,221.219 467.5,218.5C 467.741,216.102 467.074,214.102 465.5,212.5C 465.5,212.167 465.5,211.833 465.5,211.5C 465.308,207.898 463.974,204.898 461.5,202.5C 461.34,200.847 460.674,199.514 459.5,198.5C 459.155,195.802 457.822,193.802 455.5,192.5C 455.068,191.29 454.401,190.29 453.5,189.5C 453.573,187.973 452.906,186.973 451.5,186.5C 451.573,184.973 450.906,183.973 449.5,183.5C 449.262,181.596 448.262,180.262 446.5,179.5C 443.5,174.5 439.5,170.5 434.5,167.5C 433.089,165.086 431.089,163.419 428.5,162.5C 428.027,161.094 427.027,160.427 425.5,160.5C 424.508,160.672 423.842,160.338 423.5,159.5C 423.027,158.094 422.027,157.427 420.5,157.5C 419.313,155.025 417.313,154.025 414.5,154.5C 413.817,152.824 412.483,152.157 410.5,152.5C 410.158,151.662 409.492,151.328 408.5,151.5C 403.491,148.148 397.825,146.148 391.5,145.5C 390.833,145.5 390.167,145.5 389.5,145.5C 387.485,144.076 385.152,143.41 382.5,143.5C 380.5,142.5 378.5,141.5 376.5,140.5 Z"/></g>
<g><path style="opacity:0.278" fill="#e3e3e3" d="M 542.5,141.5 C 542.5,141.167 542.5,140.833 542.5,140.5C 571.5,140.5 600.5,140.5 629.5,140.5C 629.5,263.167 629.5,385.833 629.5,508.5C 627.833,508.5 626.167,508.5 624.5,508.5C 624.5,507.833 624.5,507.167 624.5,506.5C 626.5,506.5 627.5,505.5 627.5,503.5C 628.666,384.001 628.833,264.334 628,144.5C 627.617,143.944 627.117,143.611 626.5,143.5C 626.389,142.883 626.056,142.383 625.5,142C 597.835,141.5 570.169,141.333 542.5,141.5 Z"/></g>
<g><path style="opacity:0.286" fill="#d1d1d1" d="M 376.5,140.5 C 378.5,141.5 380.5,142.5 382.5,143.5C 381.167,143.5 379.833,143.5 378.5,143.5C 377.791,142.596 376.791,142.263 375.5,142.5C 324.501,141.833 273.334,141.5 222,141.5C 170.496,141.5 119.329,142.167 68.5,143.5C 67.1667,264.167 67.1667,384.833 68.5,505.5C 68.8333,506.5 69.5,507.167 70.5,507.5C 70.5,507.833 70.5,508.167 70.5,508.5C 68.8333,508.5 67.1667,508.5 65.5,508.5C 65.5,385.833 65.5,263.167 65.5,140.5C 169.167,140.5 272.833,140.5 376.5,140.5 Z"/></g>
<g><path style="opacity:0.38" fill="#b4b4b4" d="M 375.5,142.5 C 273.332,142.167 171.332,142.501 69.5,143.5C 69.1667,143.5 68.8333,143.5 68.5,143.5C 119.329,142.167 170.496,141.5 222,141.5C 273.334,141.5 324.501,141.833 375.5,142.5 Z"/></g>
<g><path style="opacity:0.392" fill="#787878" d="M 391.5,145.5 C 397.825,146.148 403.491,148.148 408.5,151.5C 402.695,149.746 397.028,147.746 391.5,145.5 Z"/></g>
<g><path style="opacity:0.733" fill="#3a3a3a" d="M 68.5,143.5 C 68.8333,143.5 69.1667,143.5 69.5,143.5C 69.5,143.833 69.5,144.167 69.5,144.5C 68.8333,204.332 68.5,264.332 68.5,324.5C 68.5038,385.043 69.1704,445.376 70.5,505.5C 69.8333,505.5 69.1667,505.5 68.5,505.5C 67.1667,384.833 67.1667,264.167 68.5,143.5 Z"/></g>
<g><path style="opacity:0.122" fill="#e8e8e8" d="M 542.5,140.5 C 542.5,140.833 542.5,141.167 542.5,141.5C 541.662,141.842 541.328,142.508 541.5,143.5C 540.167,203.33 539.5,263.496 539.5,324C 539.5,384.334 539.833,444.501 540.5,504.5C 540.733,506.062 541.4,507.395 542.5,508.5C 540.833,508.5 539.167,508.5 537.5,508.5C 537.5,385.833 537.5,263.167 537.5,140.5C 539.167,140.5 540.833,140.5 542.5,140.5 Z"/></g>
<g><path style="opacity:0.376" fill="#a3a3a3" d="M 541.5,143.5 C 540.502,263.763 540.169,384.096 540.5,504.5C 539.833,444.501 539.5,384.334 539.5,324C 539.5,263.496 540.167,203.33 541.5,143.5 Z"/></g>
<g><path style="opacity:0.463" fill="#a8a8a8" d="M 626.5,143.5 C 627.117,143.611 627.617,143.944 628,144.5C 628.833,264.334 628.666,384.001 627.5,503.5C 627.829,383.46 627.496,263.46 626.5,143.5 Z"/></g>
<g><path style="opacity:0.302" fill="#909090" d="M 410.5,152.5 C 412.483,152.157 413.817,152.824 414.5,154.5C 412.847,154.34 411.514,153.674 410.5,152.5 Z"/></g>
<g><path style="opacity:0.443" fill="#9f9f9f" d="M 414.5,154.5 C 417.313,154.025 419.313,155.025 420.5,157.5C 418.456,156.492 416.456,155.492 414.5,154.5 Z"/></g>
<g><path style="opacity:0.463" fill="#777777" d="M 420.5,157.5 C 422.027,157.427 423.027,158.094 423.5,159.5C 421.973,159.573 420.973,158.906 420.5,157.5 Z"/></g>
<g><path style="opacity:0.42" fill="#929292" d="M 425.5,160.5 C 427.027,160.427 428.027,161.094 428.5,162.5C 426.973,162.573 425.973,161.906 425.5,160.5 Z"/></g>
<g><path style="opacity:0.42" fill="#707070" d="M 428.5,162.5 C 431.089,163.419 433.089,165.086 434.5,167.5C 431.593,166.927 429.593,165.261 428.5,162.5 Z"/></g>
<g><path style="opacity:0.231" fill="#858585" d="M 434.5,167.5 C 439.5,170.5 443.5,174.5 446.5,179.5C 442.167,175.833 438.167,171.833 434.5,167.5 Z"/></g>
<g><path style="opacity:0.439" fill="#686868" d="M 446.5,179.5 C 448.262,180.262 449.262,181.596 449.5,183.5C 447.738,182.738 446.738,181.404 446.5,179.5 Z"/></g>
<g><path style="opacity:0.514" fill="#535353" d="M 449.5,183.5 C 450.906,183.973 451.573,184.973 451.5,186.5C 450.094,186.027 449.427,185.027 449.5,183.5 Z"/></g>
<g><path style="opacity:0.584" fill="#464646" d="M 451.5,186.5 C 452.906,186.973 453.573,187.973 453.5,189.5C 452.094,189.027 451.427,188.027 451.5,186.5 Z"/></g>
<g><path style="opacity:0.675" fill="#5c5c5c" d="M 455.5,192.5 C 457.822,193.802 459.155,195.802 459.5,198.5C 457.631,196.966 456.298,194.966 455.5,192.5 Z"/></g>
<g><path style="opacity:0.729" fill="#4b4b4b" d="M 459.5,198.5 C 460.674,199.514 461.34,200.847 461.5,202.5C 459.824,201.817 459.157,200.483 459.5,198.5 Z"/></g>
<g><path style="opacity:0.604" fill="#787878" d="M 461.5,202.5 C 463.974,204.898 465.308,207.898 465.5,211.5C 463.512,208.839 462.179,205.839 461.5,202.5 Z"/></g>
<g><path style="opacity:0.682" fill="#676767" d="M 465.5,212.5 C 467.074,214.102 467.741,216.102 467.5,218.5C 465.926,216.898 465.259,214.898 465.5,212.5 Z"/></g>
<g><path style="opacity:0.459" fill="#696969" d="M 157.5,219.5 C 217.335,218.169 277.335,218.169 337.5,219.5C 339.631,220.169 341.631,220.835 343.5,221.5C 341.833,221.5 340.167,221.5 338.5,221.5C 337.167,221.5 335.833,221.5 334.5,221.5C 334.389,220.883 334.056,220.383 333.5,220C 274.834,219.5 216.168,219.333 157.5,219.5 Z"/></g>
<g><path style="opacity:0.204" fill="#cecece" d="M 157.5,219.5 C 216.168,219.333 274.834,219.5 333.5,220C 334.056,220.383 334.389,220.883 334.5,221.5C 275.5,221.5 216.5,221.5 157.5,221.5C 157.5,220.833 157.5,220.167 157.5,219.5 Z"/></g>
<g><path style="opacity:0.631" fill="#393939" d="M 155.5,220.5 C 154.503,315.096 154.169,409.763 154.5,504.5C 154.167,505.5 153.5,506.167 152.5,506.5C 151.5,506.5 150.5,506.5 149.5,506.5C 122.995,506.831 96.6614,506.498 70.5,505.5C 98.0741,505.828 125.574,505.495 153,504.5C 152.835,409.495 153.668,314.828 155.5,220.5 Z"/></g>
<g><path style="opacity:0.525" fill="#999999" d="M 343.5,221.5 C 345.965,221.767 348.299,222.434 350.5,223.5C 350.5,223.833 350.5,224.167 350.5,224.5C 347.728,224.241 345.395,223.241 343.5,221.5 Z"/></g>
<g><path style="opacity:0.369" fill="#a4a4a4" d="M 157.5,219.5 C 157.5,220.167 157.5,220.833 157.5,221.5C 157.5,221.833 157.5,222.167 157.5,222.5C 156.167,222.5 155.5,223.167 155.5,224.5C 155.833,318.001 155.499,411.335 154.5,504.5C 154.169,409.763 154.503,315.096 155.5,220.5C 155.842,219.662 156.508,219.328 157.5,219.5 Z"/></g>
<g><path style="opacity:0.118" fill="#ececec" d="M 155.5,224.5 C 156.167,317.833 156.833,411.167 157.5,504.5C 157.5,505.833 157.5,507.167 157.5,508.5C 155.5,508.5 153.5,508.5 151.5,508.5C 151.833,507.833 152.167,507.167 152.5,506.5C 153.5,506.167 154.167,505.5 154.5,504.5C 155.499,411.335 155.833,318.001 155.5,224.5 Z"/></g>
<g><path style="opacity:0.027" fill="#dfdfdf" d="M 157.5,222.5 C 157.5,316.5 157.5,410.5 157.5,504.5C 156.833,411.167 156.167,317.833 155.5,224.5C 155.5,223.167 156.167,222.5 157.5,222.5 Z"/></g>
<g><path style="opacity:0.976" fill="#111111" d="M 350.5,224.5 C 350.5,224.167 350.5,223.833 350.5,223.5C 352.666,223.579 354.666,224.246 356.5,225.5C 357.672,225.081 358.672,224.415 359.5,223.5C 362.515,225.67 365.682,227.67 369,229.5C 369.5,229.333 370,229.167 370.5,229C 367.968,228.388 367.135,226.888 368,224.5C 369.5,226 371,227.5 372.5,229C 371.833,229.667 371.167,230.333 370.5,231C 372.731,232.61 374.731,234.443 376.5,236.5C 375.675,237.386 374.675,237.719 373.5,237.5C 373.5,238.5 373.5,239.5 373.5,240.5C 372.833,240.167 372.167,239.833 371.5,239.5C 371.19,237.856 370.19,236.856 368.5,236.5C 367.833,235.5 367.167,234.5 366.5,233.5C 365.415,231.413 363.749,230.08 361.5,229.5C 360.391,229.443 359.391,229.11 358.5,228.5C 358.027,227.094 357.027,226.427 355.5,226.5C 353.989,225.498 352.322,224.831 350.5,224.5 Z"/></g>
<g><path style="opacity:0.549" fill="#888888" d="M 355.5,226.5 C 357.027,226.427 358.027,227.094 358.5,228.5C 356.973,228.573 355.973,227.906 355.5,226.5 Z"/></g>
<g><path style="opacity:0.686" fill="#4c4c4c" d="M 361.5,229.5 C 363.749,230.08 365.415,231.413 366.5,233.5C 364.251,232.92 362.585,231.587 361.5,229.5 Z"/></g>
<g><path style="opacity:0.604" fill="#989898" d="M 469.5,227.5 C 470.222,227.918 470.722,228.584 471,229.5C 471.497,232.146 471.664,234.813 471.5,237.5C 471.167,237.5 470.833,237.5 470.5,237.5C 470.384,234.14 470.051,230.807 469.5,227.5 Z"/></g>
<g><path style="opacity:0.181" fill="#f4f4f4" d="M 338.5,221.5 C 340.167,221.5 341.833,221.5 343.5,221.5C 345.395,223.241 347.728,224.241 350.5,224.5C 352.322,224.831 353.989,225.498 355.5,226.5C 355.973,227.906 356.973,228.573 358.5,228.5C 359.391,229.11 360.391,229.443 361.5,229.5C 362.585,231.587 364.251,232.92 366.5,233.5C 367.167,234.5 367.833,235.5 368.5,236.5C 368.5,238.5 369.5,239.5 371.5,239.5C 371.738,241.404 372.738,242.738 374.5,243.5C 374.725,246.546 376.058,248.879 378.5,250.5C 379.674,251.514 380.34,252.847 380.5,254.5C 381.256,258.767 382.589,262.767 384.5,266.5C 384.5,268.167 384.5,269.833 384.5,271.5C 383.504,271.414 382.671,271.748 382,272.5C 380.294,269.041 380.128,265.541 381.5,262C 380.207,261.51 378.873,261.343 377.5,261.5C 377.5,258.833 377.5,256.167 377.5,253.5C 376.448,253.649 375.448,253.483 374.5,253C 373.167,252.333 373.167,251.667 374.5,251C 373.216,250.316 372.049,250.483 371,251.5C 370.798,249.744 370.298,248.078 369.5,246.5C 368.035,247.609 367.035,247.109 366.5,245C 366.833,244.667 367.167,244.333 367.5,244C 366.128,243.598 364.795,243.098 363.5,242.5C 362.289,241.726 362.289,240.893 363.5,240C 360.743,238.351 358.076,236.518 355.5,234.5C 355.709,233.914 356.043,233.414 356.5,233C 355.207,232.51 353.873,232.343 352.5,232.5C 352.5,231.167 352.5,229.833 352.5,228.5C 350.167,228.5 347.833,228.5 345.5,228.5C 345.5,227.5 345.5,226.5 345.5,225.5C 343.143,225.663 340.81,225.497 338.5,225C 337.829,224.014 337.829,222.847 338.5,221.5 Z"/></g>
<g><path style="opacity:0.549" fill="#aaaaaa" d="M 368.5,236.5 C 370.19,236.856 371.19,237.856 371.5,239.5C 369.5,239.5 368.5,238.5 368.5,236.5 Z"/></g>
<g><path style="opacity:0.569" fill="#999999" d="M 371.5,239.5 C 372.167,239.833 372.833,240.167 373.5,240.5C 374.11,241.391 374.443,242.391 374.5,243.5C 372.738,242.738 371.738,241.404 371.5,239.5 Z"/></g>
<g><path style="opacity:0.345" fill="#bbbbbb" d="M 374.5,243.5 C 375.5,243.833 376.167,244.5 376.5,245.5C 377.167,247.167 377.833,248.833 378.5,250.5C 376.058,248.879 374.725,246.546 374.5,243.5 Z"/></g>
<g><path style="opacity:0.298" fill="#7a7a7a" d="M 470.5,237.5 C 470.833,237.5 471.167,237.5 471.5,237.5C 472.487,326.149 472.82,414.815 472.5,503.5C 471.833,504.167 471.167,504.833 470.5,505.5C 470.5,416.167 470.5,326.833 470.5,237.5 Z"/></g>
<g><path style="opacity:0.114" fill="#aeaeae" d="M 471.5,237.5 C 472.167,237.5 472.833,237.5 473.5,237.5C 473.5,326.167 473.5,414.833 473.5,503.5C 473.167,503.5 472.833,503.5 472.5,503.5C 472.82,414.815 472.487,326.149 471.5,237.5 Z"/></g>
<g><path style="opacity:0.675" fill="#3d3d3d" d="M 376.5,245.5 C 377.482,246.141 378.482,246.807 379.5,247.5C 382.835,254.172 385.168,261.172 386.5,268.5C 386.923,270.781 386.256,272.448 384.5,273.5C 384.5,272.833 384.5,272.167 384.5,271.5C 384.5,269.833 384.5,268.167 384.5,266.5C 384.139,262.085 382.806,258.085 380.5,254.5C 380.34,252.847 379.674,251.514 378.5,250.5C 377.833,248.833 377.167,247.167 376.5,245.5 Z"/></g>
<g><path style="opacity:0.259" fill="#b2b2b2" d="M 380.5,254.5 C 382.806,258.085 384.139,262.085 384.5,266.5C 382.589,262.767 381.256,258.767 380.5,254.5 Z"/></g>
<g><path style="opacity:0.067" fill="#222222" d="M 384.5,276.5 C 385.833,312.661 386.5,349.161 386.5,386C 386.5,422.839 385.833,459.339 384.5,495.5C 384.5,422.5 384.5,349.5 384.5,276.5 Z"/></g>
<g><path style="opacity:0.341" fill="#151515" d="M 386.5,268.5 C 387.266,270.684 387.933,273.018 388.5,275.5C 387.503,351.459 387.17,427.459 387.5,503.5C 386.5,503.5 385.5,503.5 384.5,503.5C 384.5,500.833 384.5,498.167 384.5,495.5C 385.833,459.339 386.5,422.839 386.5,386C 386.5,349.161 385.833,312.661 384.5,276.5C 384.5,275.5 384.5,274.5 384.5,273.5C 386.256,272.448 386.923,270.781 386.5,268.5 Z"/></g>
<g><path style="opacity:0.004" fill="#d2d2d2" d="M 280.5,280.5 C 280.082,281.222 279.416,281.722 278.5,282C 290.192,282.253 301.858,282.753 313.5,283.5C 314.338,283.842 314.672,284.508 314.5,285.5C 312.5,285.167 310.5,284.833 308.5,284.5C 280.64,283.188 252.64,283.188 224.5,284.5C 225.23,283.288 226.23,282.288 227.5,281.5C 245.154,280.5 262.821,280.167 280.5,280.5 Z"/></g>
<g><path style="opacity:0.004" fill="#f4f4f4" d="M 280.5,280.5 C 290.522,280.168 300.522,280.501 310.5,281.5C 311.602,282.176 312.602,282.842 313.5,283.5C 301.858,282.753 290.192,282.253 278.5,282C 279.416,281.722 280.082,281.222 280.5,280.5 Z"/></g>
<g><path style="opacity:0.365" fill="#979797" d="M 308.5,284.5 C 281.995,284.169 255.661,284.502 229.5,285.5C 228.508,285.328 227.842,285.662 227.5,286.5C 226.5,286.5 225.5,286.5 224.5,286.5C 224.5,285.833 224.5,285.167 224.5,284.5C 252.64,283.188 280.64,283.188 308.5,284.5 Z"/></g>
<g><path style="opacity:0.995" fill="#000000" d="M 229.5,285.5 C 256.167,285.5 282.833,285.5 309.5,285.5C 310.494,358.125 310.827,430.792 310.5,503.5C 310.5,504.167 310.5,504.833 310.5,505.5C 283.574,506.491 256.574,506.824 229.5,506.5C 228.508,506.672 227.842,506.338 227.5,505.5C 228.032,432.387 228.032,359.387 227.5,286.5C 227.842,285.662 228.508,285.328 229.5,285.5 Z"/></g>
<g><path style="opacity:0.22" fill="#6d6d6d" d="M 229.5,285.5 C 255.661,284.502 281.995,284.169 308.5,284.5C 310.5,284.833 312.5,285.167 314.5,285.5C 314.5,286.167 314.5,286.833 314.5,287.5C 313.5,287.5 312.5,287.5 311.5,287.5C 311.167,286.5 310.5,285.833 309.5,285.5C 282.833,285.5 256.167,285.5 229.5,285.5 Z"/></g>
<g><path style="opacity:0.101" fill="#1d1d1d" d="M 224.5,296.5 C 225.832,308.815 226.499,321.482 226.5,334.5C 226.333,347.167 226.167,359.833 226,372.5C 225.617,373.056 225.117,373.389 224.5,373.5C 224.5,347.833 224.5,322.167 224.5,296.5 Z"/></g>
<g><path style="opacity:0.514" fill="#191919" d="M 309.5,285.5 C 310.5,285.833 311.167,286.5 311.5,287.5C 311.833,359.669 311.499,431.669 310.5,503.5C 310.827,430.792 310.494,358.125 309.5,285.5 Z"/></g>
<g><path style="opacity:0.029" fill="#3d3d3d" d="M 311.5,287.5 C 312.5,287.5 313.5,287.5 314.5,287.5C 314.5,359.5 314.5,431.5 314.5,503.5C 312.938,503.733 311.605,504.4 310.5,505.5C 310.5,504.833 310.5,504.167 310.5,503.5C 311.499,431.669 311.833,359.669 311.5,287.5 Z"/></g>
<g><path style="opacity:0.099" fill="#111111" d="M 224.5,286.5 C 225.5,286.5 226.5,286.5 227.5,286.5C 228.032,359.387 228.032,432.387 227.5,505.5C 226.5,505.5 225.5,505.5 224.5,505.5C 224.5,461.5 224.5,417.5 224.5,373.5C 225.117,373.389 225.617,373.056 226,372.5C 226.167,359.833 226.333,347.167 226.5,334.5C 226.499,321.482 225.832,308.815 224.5,296.5C 224.5,293.167 224.5,289.833 224.5,286.5 Z"/></g>
<g><path style="opacity:0.298" fill="#525252" d="M 384.5,503.5 C 385.5,503.5 386.5,503.5 387.5,503.5C 387.5,504.167 387.5,504.833 387.5,505.5C 386.5,505.5 385.5,505.5 384.5,505.5C 384.5,504.833 384.5,504.167 384.5,503.5 Z"/></g>
<g><path style="opacity:0.639" fill="#242424" d="M 541.5,504.5 C 569.122,505.483 596.789,505.816 624.5,505.5C 624.5,505.833 624.5,506.167 624.5,506.5C 597.165,506.667 569.831,506.5 542.5,506C 541.944,505.617 541.611,505.117 541.5,504.5 Z"/></g>
<g><path style="opacity:0.592" fill="#7e7e7e" d="M 627.5,503.5 C 627.5,505.5 626.5,506.5 624.5,506.5C 624.5,506.167 624.5,505.833 624.5,505.5C 625.5,504.833 626.5,504.167 627.5,503.5 Z"/></g>
<g><path style="opacity:0.38" fill="#878787" d="M 68.5,505.5 C 69.1667,505.5 69.8333,505.5 70.5,505.5C 96.6614,506.498 122.995,506.831 149.5,506.5C 123.339,507.498 97.0053,507.831 70.5,507.5C 69.5,507.167 68.8333,506.5 68.5,505.5 Z"/></g>
<g><path style="opacity:0.38" fill="#8c8c8c" d="M 314.5,503.5 C 314.5,504.167 314.5,504.833 314.5,505.5C 313.078,505.709 311.745,506.209 310.5,507C 300.506,507.5 290.506,507.666 280.5,507.5C 263.325,507.83 246.325,507.497 229.5,506.5C 256.574,506.824 283.574,506.491 310.5,505.5C 311.605,504.4 312.938,503.733 314.5,503.5 Z"/></g>
<g><path style="opacity:0.251" fill="#aeaeae" d="M 149.5,506.5 C 150.5,506.5 151.5,506.5 152.5,506.5C 152.167,507.167 151.833,507.833 151.5,508.5C 124.5,508.5 97.5,508.5 70.5,508.5C 70.5,508.167 70.5,507.833 70.5,507.5C 97.0053,507.831 123.339,507.498 149.5,506.5 Z"/></g>
<g><path style="opacity:0.251" fill="#b1b1b1" d="M 224.5,505.5 C 225.5,505.5 226.5,505.5 227.5,505.5C 227.842,506.338 228.508,506.672 229.5,506.5C 246.325,507.497 263.325,507.83 280.5,507.5C 280.5,507.833 280.5,508.167 280.5,508.5C 261.833,508.5 243.167,508.5 224.5,508.5C 224.5,507.5 224.5,506.5 224.5,505.5 Z"/></g>
<g><path style="opacity:0.251" fill="#cdcdcd" d="M 314.5,505.5 C 314.5,506.5 314.5,507.5 314.5,508.5C 303.167,508.5 291.833,508.5 280.5,508.5C 280.5,508.167 280.5,507.833 280.5,507.5C 290.506,507.666 300.506,507.5 310.5,507C 311.745,506.209 313.078,505.709 314.5,505.5 Z"/></g>
<g><path style="opacity:0.251" fill="#aaaaaa" d="M 384.5,505.5 C 385.5,505.5 386.5,505.5 387.5,505.5C 414.662,506.498 441.995,506.831 469.5,506.5C 451.833,507.167 434.167,507.833 416.5,508.5C 406.145,508.832 395.812,508.499 385.5,507.5C 385.137,506.817 384.804,506.15 384.5,505.5 Z"/></g>
<g><path style="opacity:0.251" fill="#d2d2d2" d="M 472.5,503.5 C 472.833,503.5 473.167,503.5 473.5,503.5C 473.5,505.167 473.5,506.833 473.5,508.5C 454.5,508.5 435.5,508.5 416.5,508.5C 434.167,507.833 451.833,507.167 469.5,506.5C 470.167,506.5 470.5,506.167 470.5,505.5C 471.167,504.833 471.833,504.167 472.5,503.5 Z"/></g>
<g><path style="opacity:0.251" fill="#a1a1a1" d="M 540.5,504.5 C 540.833,504.5 541.167,504.5 541.5,504.5C 541.611,505.117 541.944,505.617 542.5,506C 569.831,506.5 597.165,506.667 624.5,506.5C 624.5,507.167 624.5,507.833 624.5,508.5C 597.167,508.5 569.833,508.5 542.5,508.5C 541.4,507.395 540.733,506.062 540.5,504.5 Z"/></g>
</svg>
