<?xml version="1.0" encoding="UTF-8"?>
<!DOCTYPE svg PUBLIC "-//W3C//DTD SVG 1.1//EN" "http://www.w3.org/Graphics/SVG/1.1/DTD/svg11.dtd">
<svg xmlns="http://www.w3.org/2000/svg" version="1.1" width="150px" height="150px" style="shape-rendering:geometricPrecision; text-rendering:geometricPrecision; image-rendering:optimizeQuality; fill-rule:evenodd; clip-rule:evenodd" xmlns:xlink="http://www.w3.org/1999/xlink">
<g><path style="opacity:0.985" fill="#020202" d="M 64.5,-0.5 C 71.5,-0.5 78.5,-0.5 85.5,-0.5C 119.636,6.96932 140.969,27.636 149.5,61.5C 149.5,70.1667 149.5,78.8333 149.5,87.5C 141.167,120.5 120.5,141.167 87.5,149.5C 78.8333,149.5 70.1667,149.5 61.5,149.5C 27.6411,140.974 6.97439,119.641 -0.5,85.5C -0.5,78.5 -0.5,71.5 -0.5,64.5C 6.83333,28.5 28.5,6.83333 64.5,-0.5 Z"/></g>
<g><path style="opacity:1" fill="#e9e9e9" d="M 21.5,66.5 C 24.1873,66.3359 26.854,66.5026 29.5,67C 30.3802,68.3561 30.7135,69.8561 30.5,71.5C 29.1667,71.5 27.8333,71.5 26.5,71.5C 26.3328,68.0429 25.3328,67.7096 23.5,70.5C 27.2244,72.2242 29.8911,74.8908 31.5,78.5C 30.1322,83.0777 27.1322,84.5777 22.5,83C 20.393,81.7365 19.393,79.9032 19.5,77.5C 22.0488,77.4411 24.0488,78.4411 25.5,80.5C 26.5,80.1667 27.1667,79.5 27.5,78.5C 24.948,76.631 22.448,74.631 20,72.5C 19.2516,70.1599 19.7516,68.1599 21.5,66.5 Z"/></g>
<g><path style="opacity:1" fill="#e9e9e9" d="M 73.5,66.5 C 75.8568,66.3367 78.1902,66.5034 80.5,67C 82.0368,68.1096 82.7035,69.6096 82.5,71.5C 79.9512,71.5589 77.9512,70.5589 76.5,68.5C 76.1667,69 75.8333,69.5 75.5,70C 77.2895,72.1642 79.4562,73.9975 82,75.5C 82.6264,82.9466 79.4597,85.1132 72.5,82C 71.6198,80.6439 71.2865,79.1439 71.5,77.5C 80.5169,79.7343 80.6836,78.4009 72,73.5C 71.1668,70.829 71.6668,68.4957 73.5,66.5 Z"/></g>
<g><path style="opacity:1" fill="#eeeeee" d="M 121.5,66.5 C 123.857,66.3367 126.19,66.5034 128.5,67C 130.037,68.1096 130.703,69.6096 130.5,71.5C 128.071,71.1156 125.737,70.449 123.5,69.5C 123.5,72.8333 123.5,76.1667 123.5,79.5C 124.5,79.5 125.5,79.5 126.5,79.5C 125.833,77.5 125.167,75.5 124.5,73.5C 126.5,73.5 128.5,73.5 130.5,73.5C 131.63,81.7013 128.297,84.368 120.5,81.5C 118.91,76.266 119.243,71.266 121.5,66.5 Z"/></g>
<g><path style="opacity:1" fill="#e9e9e9" d="M 41.5,75.5 C 41.7989,73.396 41.4656,71.396 40.5,69.5C 39.8933,69.6236 39.56,69.9569 39.5,70.5C 39.4955,74.5341 39.1621,78.5341 38.5,82.5C 36.712,82.7852 35.0453,82.4519 33.5,81.5C 34.8847,76.5763 35.8847,71.5763 36.5,66.5C 38.924,66.1924 41.2573,66.5258 43.5,67.5C 44.6281,72.474 45.6281,77.474 46.5,82.5C 44.8333,82.5 43.1667,82.5 41.5,82.5C 41.5,80.1667 41.5,77.8333 41.5,75.5 Z"/></g>
<g><path style="opacity:1" fill="#e4e4e4" d="M 49.5,66.5 C 52.1194,66.2317 54.6194,66.565 57,67.5C 58.6462,79.2739 59.8129,78.9405 60.5,66.5C 62.8333,66.5 65.1667,66.5 67.5,66.5C 67.5,71.8333 67.5,77.1667 67.5,82.5C 66.1667,82.5 64.8333,82.5 63.5,82.5C 63.7328,68.5417 62.8995,68.2083 61,81.5C 59.6439,82.3802 58.1439,82.7135 56.5,82.5C 54.218,65.3374 53.218,65.3374 53.5,82.5C 52.1667,82.5 50.8333,82.5 49.5,82.5C 49.5,77.1667 49.5,71.8333 49.5,66.5 Z"/></g>
<g><path style="opacity:1" fill="#eeeeee" d="M 86.5,66.5 C 87.8333,66.5 89.1667,66.5 90.5,66.5C 90.5,70.8333 90.5,75.1667 90.5,79.5C 91.5,79.5 92.5,79.5 93.5,79.5C 93.5,75.1667 93.5,70.8333 93.5,66.5C 94.8333,66.5 96.1667,66.5 97.5,66.5C 97.6658,71.1785 97.4992,75.8452 97,80.5C 93.8986,82.7201 90.5653,83.0535 87,81.5C 86.5007,76.5111 86.3341,71.5111 86.5,66.5 Z"/></g>
<g><path style="opacity:1" fill="#e4e4e4" d="M 101.5,66.5 C 103.792,66.2436 105.959,66.5769 108,67.5C 110.898,79.4927 112.065,79.1593 111.5,66.5C 112.833,66.5 114.167,66.5 115.5,66.5C 115.5,71.8333 115.5,77.1667 115.5,82.5C 113.396,82.7989 111.396,82.4656 109.5,81.5C 108.021,77.9464 106.854,74.2797 106,70.5C 105.501,74.4862 105.334,78.4862 105.5,82.5C 104.167,82.5 102.833,82.5 101.5,82.5C 101.5,77.1667 101.5,71.8333 101.5,66.5 Z"/></g>
<g><path style="opacity:1" fill="#818181" d="M 39.5,70.5 C 39.56,69.9569 39.8933,69.6236 40.5,69.5C 41.4656,71.396 41.7989,73.396 41.5,75.5C 40.8333,73.8333 40.1667,72.1667 39.5,70.5 Z"/></g>
</svg>
